<?xml version="1.0" encoding="UTF-8"?>
<svg id="Layer_2" data-name="Layer 2" xmlns="http://www.w3.org/2000/svg" viewBox="0 0 403.33 64.1">
  <defs>
    <style>
      .cls-1 {
        fill: #fff;
      }
    </style>
  </defs>
  <g id="Layer_1-2" data-name="Layer 1">
    <g>
      <path class="cls-1" d="M12.77,14.53l2.29,2.29c.1-.96,.48-1.82,1.14-2.58,1.13-1.09,3-1.64,5.6-1.64s4.69,.64,5.98,1.93l2.29,2.29c.08-.78,.35-1.46,.81-2.04,.46-.58,1.04-1.02,1.73-1.32,.69-.3,1.4-.52,2.11-.66,.71-.14,1.45-.21,2.21-.21,.57,0,1.37,.17,2.4,.5,1.07,.43,1.93,.97,2.58,1.61l3.84,3.84c1.37,1.43,2.15,3.41,2.34,5.95v.91c0,2.05-.29,4.48-.88,7.28-.59,2.8-1.28,5.27-2.08,7.4-.49,1.33-1.01,2.48-1.55,3.46-.55,.98-1.22,1.92-2.02,2.83s-1.75,1.6-2.86,2.08c-1.1,.48-2.34,.72-3.71,.72-2.36,0-4.24-.66-5.62-1.99l-3.08-3.13c-.74,1.78-1.76,3.08-3.05,3.9s-2.93,1.23-4.92,1.23c-2.91,0-5.2-.8-6.86-2.4l-3.78-3.84c-1.54-1.54-2.31-3.69-2.31-6.45,0-.57,.05-1.44,.15-2.61s.15-2.06,.15-2.67c0-1-.11-1.86-.32-2.61-.21-.74-.59-1.55-1.11-2.43-.21-.37-.55-.89-1.01-1.55-.46-.66-.73-1.06-.81-1.2-1.6-2.38-2.4-4.46-2.4-6.24,0-.9,.2-1.67,.6-2.3,.4-.63,.95-1.11,1.66-1.42,.7-.31,1.42-.53,2.15-.66,.73-.13,1.53-.19,2.39-.19,2.64,0,4.63,.64,5.98,1.93Zm10.17,21.3c.08-.51,.15-.89,.22-1.16s.13-.42,.19-.48,.14-.09,.23-.09,.17,.03,.22,.09,.09,.22,.12,.47c.03,.25,.03,.63,.01,1.11-.08,1.43,.01,2.68,.28,3.76s.62,1.95,1.08,2.59,1.03,1.17,1.71,1.58,1.36,.69,2.02,.83,1.37,.22,2.11,.22c2.03,0,3.84-.66,5.43-1.98s2.98-3.58,4.17-6.78c.78-2.23,1.48-4.82,2.09-7.78s.87-5.46,.78-7.51c-.06-1.02-.22-1.94-.5-2.77-.27-.83-.61-1.5-1.01-2.01-.4-.51-.83-.95-1.3-1.32-.47-.37-.93-.64-1.39-.82s-.87-.31-1.25-.41c-.37-.1-.67-.15-.91-.15l-.35-.03c-1.33,0-2.45,.16-3.37,.48s-1.58,.74-1.99,1.26c-.41,.52-.7,1.09-.86,1.73-.17,.63-.18,1.28-.04,1.93,.14,.65,.33,1.26,.59,1.82s.55,1.03,.88,1.42c.35,.41,.69,.99,1.03,1.73,.33,.74,.62,1.61,.88,2.61s.33,2.1,.23,3.31c-.1,1.21-.41,2.34-.94,3.4-.25,.51-.52,.92-.81,1.25s-.51,.53-.67,.63c-.17,.1-.3,.15-.4,.15s-.25-.06-.45-.18-.45-.35-.73-.7-.48-.78-.6-1.29c-.27-1-.44-3.42-.5-7.27-.06-3.85-.12-6.02-.18-6.53-.18-2.03-.87-3.5-2.09-4.39-1.22-.9-2.92-1.35-5.08-1.35-1.82,0-3.28,.31-4.39,.92s-1.71,1.57-1.79,2.86c-.12,.84-.02,1.71,.29,2.62s.71,1.66,1.2,2.24c.33,.41,.65,.95,.97,1.61,.31,.66,.59,1.45,.83,2.34,.24,.9,.33,1.89,.25,2.99-.08,1.09-.34,2.14-.79,3.13-.23,.51-.49,.94-.78,1.3-.28,.36-.53,.63-.75,.79-.21,.17-.44,.29-.69,.38s-.41,.14-.48,.15c-.08,.01-.16,.01-.23,.01-.23,0-.42-.26-.56-.79-.29-1.05-.49-2.59-.6-4.6-.11-2.01-.17-4.08-.19-6.2-.02-2.12-.06-3.46-.12-4.03-.18-2.03-.87-3.5-2.09-4.39-1.22-.9-2.92-1.35-5.08-1.35s-3.96,.46-5.1,1.38c-1.13,.92-1.42,2.37-.85,4.37,.35,1.19,1.24,2.88,2.65,5.05,1.42,2.18,2.25,3.75,2.5,4.73,.25,1,.33,2.22,.22,3.68-.11,1.46-.21,2.69-.29,3.69-.09,1.01,.09,2.27,.54,3.79,.61,1.72,1.64,2.96,3.09,3.72s3.11,1.14,4.97,1.14c1.05,0,2.01-.13,2.86-.38,.85-.25,1.67-.69,2.45-1.32,.78-.62,1.44-1.55,1.98-2.77,.54-1.22,.91-2.71,1.13-4.47Zm-7.38-1.88h.12l-.12-.12-.44-1.9-.18-1.82c.02,.2,.05,.5,.09,.91s.07,.71,.09,.91c.04,.29,.15,.85,.32,1.67l.12,.23v.12Zm2.99-6.3v0Zm12.25,6.06l-.62-1.14c.31,.63,.52,1.01,.62,1.14Zm.53,.56l-.18-.18c-.14-.14-.21-.22-.23-.26,.1,.22,.23,.36,.41,.44Zm2.23-7.09v2.93c.08-.62,.12-1.1,.12-1.44,0-.37-.04-.87-.12-1.49Z"/>
      <path class="cls-1" d="M75.91,14.88l3.78,3.84c.8,.8,1.2,1.68,1.2,2.64,0,.66-.26,1.54-.79,2.64-.14,.33-.33,.77-.57,1.3-.24,.54-.4,.88-.45,1.04-.72,1.82-1.08,3.86-1.08,6.12,0,2.4,.38,4.65,1.14,6.74,.06,.14,.21,.49,.45,1.05,.24,.57,.43,1.02,.57,1.35,.49,1.17,.73,2.05,.73,2.64,0,.96-.41,1.83-1.22,2.61-.81,.78-1.73,1.36-2.77,1.74s-2.01,.57-2.93,.57c-1.58,0-2.88-.51-3.9-1.52l-2.81-2.81c-.35,.53-.77,1.01-1.26,1.44-1.93,1.93-4.22,2.9-6.86,2.9s-5.01-.91-6.77-2.72l-3.84-3.78c-1.5-1.5-2.59-3.44-3.27-5.8-.67-2.36-1.01-4.79-1.01-7.27,0-1.66,.14-3.28,.42-4.85,.28-1.57,.75-3.1,1.39-4.58,.64-1.48,1.44-2.78,2.39-3.9s2.15-2,3.6-2.67c1.46-.66,3.07-1,4.85-1,2.52,0,4.4,.63,5.65,1.88l2.11,2.08c.25-1.23,.88-2.2,1.88-2.9s2.17-1.05,3.52-1.05c.86,0,1.87,.21,3.02,.62s2.09,.97,2.81,1.67Zm-2.34,13.74c0-1.45,.15-2.81,.45-4.1s.63-2.3,.98-3.03,.68-1.46,.98-2.2,.45-1.32,.45-1.77c0-1.09-.67-2.08-2.02-2.97-1.35-.89-2.79-1.33-4.34-1.33-1.7,0-3.03,.57-3.98,1.71s-1.23,2.63-.82,4.47c.06,.59-.06,.88-.35,.88s-.56-.42-.79-1.26c-.76-3.87-3.16-5.8-7.21-5.8-3.65,0-6.57,1.48-8.76,4.44s-3.28,6.94-3.28,11.94c0,4.63,.94,8.32,2.81,11.06,1.88,2.74,4.41,4.12,7.62,4.12,1.15,0,2.23-.2,3.24-.6,1.01-.4,1.83-.87,2.48-1.41,.64-.54,1.28-1.23,1.92-2.09,.63-.86,1.09-1.57,1.38-2.12s.62-1.25,1-2.09c.38-.84,.61-1.33,.69-1.46,.29-.7,.61-1,.94-.88,.2,.14,.08,.58-.35,1.32-.94,1.78-1.37,3.36-1.29,4.75,.08,1.39,.56,2.5,1.45,3.34,.89,.84,2.02,1.26,3.38,1.26,1.52,0,2.95-.45,4.29-1.35,1.34-.9,2.01-1.9,2.01-3.02,0-.45-.15-1.06-.45-1.83-.3-.77-.63-1.56-.98-2.36-.35-.8-.68-1.89-.98-3.27s-.45-2.82-.45-4.32Zm-19.28-.59c0-1.43,.4-2.68,1.19-3.75,.79-1.07,1.84-1.61,3.15-1.61s2.33,.51,3.12,1.52c.79,1.02,1.19,2.3,1.19,3.84s-.39,2.77-1.16,3.79-1.78,1.54-3.03,1.54-2.35-.52-3.19-1.55c-.84-1.04-1.26-2.29-1.26-3.78Zm8-.97c-1.15,.08-2.03,.59-2.64,1.54-.61,.95-.91,2.04-.91,3.27,0,.39,.02,.68,.06,.88,.84,0,1.58-.29,2.23-.88,.88-.88,1.32-2.16,1.32-3.84,0-.45-.02-.77-.06-.97Zm2.2-9.11c-.04-.12-.1-.3-.18-.54-.08-.24-.14-.42-.18-.54,.02,.16,.08,.38,.18,.66,.1,.28,.16,.48,.18,.6v-.18Z"/>
      <path class="cls-1" d="M98.64,15.79l3.84,3.84c1.8,1.86,2.7,4.07,2.7,6.65,0,2.15-.65,3.85-1.96,5.1l1.67,1.7c1,1,1.49,2.43,1.49,4.31,0,3.52-1.25,6.36-3.76,8.53s-5.55,3.25-9.13,3.25c-3.77,0-6.83-1.14-9.17-3.43l-3.84-3.84c-2.81-2.87-4.22-6.95-4.22-12.25,0-2.23,.3-4.34,.89-6.34,.6-2,1.46-3.81,2.58-5.42s2.6-2.9,4.44-3.85c1.84-.96,3.9-1.44,6.18-1.44,3.34,0,6.1,1.06,8.29,3.19Zm3.31,17.75c0-2.6-.88-4.14-2.64-4.63-.68-.19-1.29-.15-1.83,.13-.54,.28-.91,.75-1.13,1.39-.33,.9-1.02,1.61-2.05,2.14s-2.05,.79-3.05,.79c-1.46,0-2.65-.56-3.56-1.68-.91-1.12-1.36-2.62-1.36-4.5,0-1.68,.36-2.96,1.07-3.84s1.62-1.32,2.71-1.32c.66,0,1.07,.17,1.23,.51,.16,.34,.03,.85-.38,1.51-.78,1.29-.75,2.35,.1,3.19,.85,.84,2.08,1.26,3.68,1.26,1.09,0,2.07-.19,2.93-.59,.78-.37,1.42-.86,1.9-1.48s.81-1.28,.97-2.01c.16-.72,.23-1.41,.22-2.07,0-.65-.09-1.3-.25-1.95-.53-2.15-1.71-3.89-3.54-5.21-1.84-1.33-4.04-1.99-6.62-1.99-1.84,0-3.56,.36-5.17,1.08-1.61,.72-3.04,1.76-4.28,3.11s-2.22,3.08-2.94,5.19-1.08,4.46-1.08,7.06c0,4.65,1.11,8.33,3.34,11.04,2.23,2.71,5.37,4.07,9.43,4.07,1.58,0,3.05-.21,4.41-.64,1.36-.43,2.51-1.01,3.47-1.73,.96-.72,1.77-1.56,2.45-2.52,.67-.96,1.17-1.97,1.49-3.05,.32-1.07,.48-2.17,.48-3.28Zm-11.84-10.93l.73,.26c0-.1-.04-.15-.12-.15-.16-.08-.36-.12-.62-.12Zm4.51,9.08c-.08-.08-.12-.15-.12-.21l-3.25-3.16c-.35,.78-.53,1.68-.53,2.7,0,.63,.06,1.2,.18,1.73,1.58,0,2.82-.35,3.72-1.05Zm3.78-3.49c1.95-1.15,2.93-3.06,2.93-5.71,0,2.6-.98,4.5-2.93,5.71Z"/>
      <path class="cls-1" d="M131.81,15.18l3.84,3.78c1.76,1.76,2.64,4.06,2.64,6.91,0,2.29-.74,4.42-2.23,6.42l2.23,2.17c1.09,.51,1.64,1.77,1.64,3.78,0,1.04-.1,2.07-.31,3.09s-.54,2.01-1,2.96-1.01,1.78-1.66,2.5c-.64,.72-1.44,1.3-2.39,1.73-.95,.43-1.99,.64-3.12,.64-2.09,0-3.94-.8-5.54-2.4l-3.46-3.49c.08,.39,.12,.71,.12,.97,0,.84-.25,1.59-.76,2.26-.51,.66-1.15,1.18-1.93,1.55-.78,.37-1.59,.65-2.42,.83-.83,.19-1.63,.28-2.39,.28-2.34,0-4.21-.66-5.6-1.99l-3.78-3.84c-1.45-1.45-2.17-3.51-2.17-6.18,0-1.05,.13-2.24,.38-3.54,.06-.37,.16-.95,.29-1.74s.23-1.37,.29-1.74c.61-3.18,.91-5.66,.91-7.44,0-3.01-.5-7.04-1.49-12.1-.25-1.74-.38-2.96-.38-3.66,0-4.61,2.46-6.91,7.38-6.91,2.52,0,4.38,.61,5.6,1.82l3.78,3.84c.92,.92,1.38,2.14,1.38,3.66,0,1.02-.16,2.35-.47,4.01,1.19-.49,2.51-.73,3.96-.73,2.71,0,4.93,.86,6.65,2.58Zm-10.14,17.34c-.53-.47-.52-.69,.03-.67,.16,.02,.34,.05,.56,.09,.53,.12,1.11,.18,1.76,.18,1.56,0,3.09-.41,4.57-1.22,1.48-.81,2.73-2,3.75-3.57,1.02-1.57,1.52-3.33,1.52-5.29,0-1.09-.17-2.15-.51-3.16-.34-1.02-.85-1.95-1.52-2.81-.67-.86-1.59-1.55-2.74-2.07-1.15-.52-2.46-.78-3.93-.78-2.54,0-4.71,.78-6.52,2.33s-3.47,3.87-5,6.96c-.41,.84-.73,1.26-.97,1.26-.39,0-.35-.42,.12-1.26,.41-.6,1.26-3.12,2.55-7.56,1.29-4.43,1.93-7.57,1.93-9.4,0-1.66-.57-2.9-1.7-3.71-1.13-.81-2.69-1.22-4.66-1.22-4.51,0-6.77,2.1-6.77,6.3,0,1,.15,2.27,.45,3.81,.3,1.54,.61,3.35,.92,5.43s.47,4.25,.47,6.52c0,2.03-.31,4.64-.92,7.82-.62,3.18-.92,5.4-.92,6.65,0,2.48,.62,4.37,1.88,5.67,1.25,1.3,3.01,1.95,5.27,1.95,1.95,0,3.58-.43,4.88-1.3,1.3-.87,1.95-1.89,1.95-3.06,0-.41-.11-.88-.34-1.41s-.47-1.08-.75-1.66c-.27-.58-.52-1.62-.75-3.12-.22-1.5-.34-3.31-.34-5.42,0-.68,.04-1.34,.13-1.96,.09-.62,.25-1.32,.5-2.09,.24-.77,.65-1.39,1.23-1.85,.58-.46,1.28-.69,2.12-.69s1.62,.27,2.21,.82c.6,.55,.89,1.46,.89,2.72,0,.98-.21,1.73-.62,2.27-.41,.54-.91,.87-1.49,1.01-.59,.14-1.18,.24-1.77,.31-.6,.07-1.1,.23-1.51,.48-.41,.25-.62,.67-.62,1.26,0,1,.48,2.54,1.44,4.63,.37,.9,.72,1.68,1.04,2.36s.77,1.46,1.35,2.36c.58,.9,1.17,1.64,1.77,2.21,.61,.58,1.34,1.07,2.21,1.49,.87,.42,1.79,.63,2.77,.63,2.34,0,4.25-1,5.71-2.99s2.2-4.45,2.2-7.38c0-2.25-.76-3.37-2.29-3.37-.98,0-1.8,.5-2.46,1.49-.82,1.17-2,1.76-3.54,1.76-.8,0-1.77-.17-2.92-.51-1.14-.34-2.03-.76-2.65-1.25Zm-7.21-12.71v-.12s.05-.11,.09-.21c.04-.1,.07-.17,.09-.21l-.18,.35v.18Zm3.25,17.4l-.35-.91c.06,.31,.18,.62,.35,.91Zm4.63-10.2c-.55,.35-.93,.79-1.14,1.32,.25-.12,.45-.27,.59-.47,.23-.18,.42-.46,.56-.85Z"/>
      <path class="cls-1" d="M138.08,36.68c0-.9,.1-2.23,.31-3.98s.31-3.08,.31-3.96c0-3.34-.36-5.6-1.08-6.77l-.79-.91c-.57-.57-.93-1.16-1.08-1.79-.04-.19-.06-.5-.06-.91,0-1.17,.41-2.21,1.23-3.12s1.8-1.58,2.93-2.01c1.13-.43,2.27-.64,3.4-.64,2.07,0,3.75,.64,5.04,1.93l3.87,3.78s.04,.1,.12,.18c0-1.76,.79-3.18,2.37-4.26s3.31-1.63,5.19-1.63c2.07,0,3.75,.64,5.04,1.93l3.84,3.78c1.39,1.39,2.08,3.3,2.08,5.74,0,.96-.17,2.37-.5,4.25s-.5,3.28-.5,4.22v3.08c0,4.77-.04,7.86-.12,9.29-.18,2.23-.43,4.2-.76,5.92-.33,1.72-.87,3.45-1.63,5.19-.75,1.74-1.68,3.17-2.8,4.31-1.11,1.13-2.57,2.05-4.38,2.75s-3.9,1.05-6.28,1.05c-2.09,0-4.07-.29-5.93-.88s-3.41-1.49-4.64-2.72l-3.84-3.84c-1.76-1.76-2.64-4.04-2.64-6.86,0-1.89,.48-3.35,1.44-4.37,.78-.68,1.69-1.03,2.72-1.03,.31,0,.53,.02,.64,.06-2.32-1.33-3.49-3.93-3.49-7.79Zm19.98-1.08c.21-.43,.39-.76,.53-.98,.14-.22,.24-.36,.31-.4,.07-.04,.15-.06,.25-.06,.31,0,.34,.34,.09,1.03-.08,.18-.17,.39-.26,.64-.1,.27-.29,.81-.57,1.6s-.52,1.45-.72,1.98-.48,1.21-.85,2.04c-.37,.83-.72,1.53-1.04,2.09-.32,.57-.72,1.18-1.2,1.85-.48,.66-.96,1.19-1.45,1.58-.49,.39-1.05,.72-1.68,1-.63,.27-1.29,.41-1.98,.41-.96,0-1.92-.23-2.89-.7s-1.79-.95-2.48-1.45-1.11-.76-1.29-.78c-.04,0-.17-.04-.38-.12-.21-.08-.42-.14-.63-.19-.21-.05-.48-.09-.83-.12s-.67,0-.97,.1c-1.76,.49-2.64,2.05-2.64,4.69,0,2.87,1.08,5.24,3.25,7.1,2.17,1.86,5.28,2.8,9.35,2.8,1.64,0,3.14-.18,4.5-.54,1.36-.36,2.54-.82,3.54-1.36,1.01-.55,1.9-1.31,2.68-2.3,.78-.99,1.43-1.94,1.93-2.86,.51-.92,.94-2.11,1.3-3.57s.63-2.76,.82-3.88,.33-2.57,.42-4.35c.1-1.78,.16-3.26,.18-4.44,.02-1.18,.03-2.73,.03-4.64v-3.02c0-.96,.16-2.37,.48-4.25s.48-3.28,.48-4.22c0-2.32-.62-4.08-1.86-5.27-1.24-1.19-2.8-1.79-4.67-1.79-2.07,0-3.82,.63-5.26,1.89s-1.97,2.61-1.6,4.06c.1,.41,.27,.76,.51,1.04,.24,.28,.5,.57,.76,.85,.26,.28,.53,.67,.79,1.17s.48,1.3,.64,2.4c.17,1.1,.25,2.48,.25,4.12v.5c0,.51-.02,1.01-.07,1.49-.05,.49-.16,1.05-.32,1.68-.17,.63-.39,1.18-.66,1.64-.27,.46-.66,.85-1.17,1.17s-1.09,.48-1.76,.48c-1.21,0-2.04-.53-2.49-1.58s-.67-2.69-.67-4.89v-.5c0-.96,.17-2.37,.51-4.25s.51-3.28,.51-4.22c0-2.32-.63-4.08-1.89-5.27-1.26-1.19-2.82-1.79-4.67-1.79-2.11,0-3.88,.63-5.3,1.89s-1.95,2.61-1.58,4.06c.1,.41,.27,.76,.51,1.04,.24,.28,.5,.57,.76,.85,.26,.28,.52,.67,.78,1.17s.46,1.3,.63,2.4c.17,1.1,.25,2.48,.25,4.12v.85c0,.33-.04,.86-.12,1.6s-.17,1.46-.26,2.18c-.1,.72-.16,1.54-.18,2.46-.02,.92,0,1.78,.07,2.59,.07,.81,.25,1.61,.54,2.4s.68,1.47,1.17,2.04c.49,.57,1.17,1.03,2.05,1.38s1.9,.53,3.08,.53c2.62,0,4.98-.81,7.09-2.42s3.89-3.86,5.33-6.75Zm-3.84-13.62l-.35-.44c.23,.8,.35,1.64,.35,2.52,0,1.02-.17,2.52-.51,4.51s-.51,3.5-.51,4.51v1.73c.62-.25,1.13-.85,1.52-1.79,.39-1.09,.59-2.52,.59-4.28,0-3.26-.36-5.52-1.08-6.77Z"/>
      <path class="cls-1" d="M216.42,14.88l3.78,3.84c.8,.8,1.2,1.68,1.2,2.64,0,.66-.26,1.54-.79,2.64-.14,.33-.33,.77-.57,1.3-.24,.54-.4,.88-.45,1.04-.72,1.82-1.08,3.86-1.08,6.12,0,2.4,.38,4.65,1.14,6.74,.06,.14,.21,.49,.45,1.05,.24,.57,.43,1.02,.57,1.35,.49,1.17,.73,2.05,.73,2.64,0,.96-.41,1.83-1.22,2.61-.81,.78-1.73,1.36-2.77,1.74s-2.01,.57-2.93,.57c-1.58,0-2.88-.51-3.9-1.52l-2.81-2.81c-.35,.53-.77,1.01-1.26,1.44-1.93,1.93-4.22,2.9-6.86,2.9s-5.01-.91-6.77-2.72l-3.84-3.78c-1.5-1.5-2.59-3.44-3.27-5.8-.67-2.36-1.01-4.79-1.01-7.27,0-1.66,.14-3.28,.42-4.85,.28-1.57,.75-3.1,1.39-4.58,.64-1.48,1.44-2.78,2.39-3.9s2.15-2,3.6-2.67c1.46-.66,3.07-1,4.85-1,2.52,0,4.4,.63,5.65,1.88l2.11,2.08c.25-1.23,.88-2.2,1.88-2.9s2.17-1.05,3.52-1.05c.86,0,1.87,.21,3.02,.62s2.09,.97,2.81,1.67Zm-2.34,13.74c0-1.45,.15-2.81,.45-4.1s.63-2.3,.98-3.03,.68-1.46,.98-2.2,.45-1.32,.45-1.77c0-1.09-.67-2.08-2.02-2.97-1.35-.89-2.79-1.33-4.34-1.33-1.7,0-3.03,.57-3.98,1.71s-1.23,2.63-.82,4.47c.06,.59-.06,.88-.35,.88s-.56-.42-.79-1.26c-.76-3.87-3.16-5.8-7.21-5.8-3.65,0-6.57,1.48-8.76,4.44s-3.28,6.94-3.28,11.94c0,4.63,.94,8.32,2.81,11.06,1.88,2.74,4.41,4.12,7.62,4.12,1.15,0,2.23-.2,3.24-.6,1.01-.4,1.83-.87,2.48-1.41,.64-.54,1.28-1.23,1.92-2.09,.63-.86,1.09-1.57,1.38-2.12s.62-1.25,1-2.09c.38-.84,.61-1.33,.69-1.46,.29-.7,.61-1,.94-.88,.2,.14,.08,.58-.35,1.32-.94,1.78-1.37,3.36-1.29,4.75,.08,1.39,.56,2.5,1.45,3.34,.89,.84,2.02,1.26,3.38,1.26,1.52,0,2.95-.45,4.29-1.35,1.34-.9,2.01-1.9,2.01-3.02,0-.45-.15-1.06-.45-1.83-.3-.77-.63-1.56-.98-2.36-.35-.8-.68-1.89-.98-3.27s-.45-2.82-.45-4.32Zm-19.28-.59c0-1.43,.4-2.68,1.19-3.75,.79-1.07,1.84-1.61,3.15-1.61s2.33,.51,3.12,1.52c.79,1.02,1.19,2.3,1.19,3.84s-.39,2.77-1.16,3.79-1.78,1.54-3.03,1.54-2.35-.52-3.19-1.55c-.84-1.04-1.26-2.29-1.26-3.78Zm8-.97c-1.15,.08-2.03,.59-2.64,1.54-.61,.95-.91,2.04-.91,3.27,0,.39,.02,.68,.06,.88,.84,0,1.58-.29,2.23-.88,.88-.88,1.32-2.16,1.32-3.84,0-.45-.02-.77-.06-.97Zm2.2-9.11c-.04-.12-.1-.3-.18-.54-.08-.24-.14-.42-.18-.54,.02,.16,.08,.38,.18,.66,.1,.28,.16,.48,.18,.6v-.18Z"/>
      <path class="cls-1" d="M247.12,14.3l3.84,3.78c1.35,1.41,2.02,3.6,2.02,6.59,0,.94-.11,2.34-.32,4.2-.21,1.87-.32,3.27-.32,4.2,0,3.26,.34,5.46,1.03,6.59l.41,.59,.53,.56c.53,.63,.85,1.18,.97,1.67l.12,.91c0,1.15-.42,2.18-1.26,3.09s-1.83,1.58-2.97,2.02-2.27,.66-3.38,.66c-2.07,0-3.75-.64-5.04-1.93l-3.78-3.78-.18-.18v.12c0,1.17-.41,2.21-1.23,3.12s-1.8,1.58-2.93,2.01c-1.13,.43-2.27,.64-3.4,.64-2.07,0-3.75-.64-5.04-1.93l-3.84-3.78c-1.41-1.41-2.11-3.33-2.11-5.77,0-1,.17-2.49,.51-4.47,.34-1.98,.51-3.47,.51-4.47,0-1.5-.16-3.02-.47-4.54-.18-.68-.48-1.54-.91-2.58-.08-.19-.24-.52-.5-.98-.25-.46-.43-.82-.53-1.07-.45-.94-.67-1.74-.67-2.4,0-1.13,.4-2.07,1.2-2.81,.57-.59,1.28-1.03,2.15-1.32s1.73-.44,2.59-.44c2.11,0,3.75,.59,4.92,1.76l3.02,2.99s.04,0,.06-.03c.02-.02,.04-.03,.06-.03,3.07-3.12,6.48-4.69,10.25-4.69,2.05,0,3.61,.57,4.69,1.7Zm-18.08,8.2c-.41,.84-.73,1.26-.97,1.26-.39,0-.35-.42,.12-1.26,.57-.9,.99-1.93,1.26-3.09,.27-1.16,.32-2.13,.15-2.92-.2-.98-.81-1.77-1.85-2.37-1.04-.6-2.25-.91-3.63-.91-1.6,0-2.89,.38-3.87,1.13-.98,.75-1.46,1.69-1.46,2.83,0,.68,.35,1.7,1.05,3.05s1.19,2.63,1.46,3.84c.35,1.43,.53,2.99,.53,4.69v.5c0,.94-.17,2.34-.5,4.2-.33,1.87-.5,3.28-.5,4.23,0,2.32,.62,4.09,1.86,5.29s2.8,1.8,4.67,1.8c2.09,0,3.85-.63,5.27-1.9,1.43-1.27,1.96-2.62,1.61-4.04-.1-.41-.27-.76-.53-1.05s-.51-.58-.76-.86c-.25-.28-.51-.67-.76-1.17s-.46-1.29-.63-2.39c-.17-1.09-.25-2.46-.25-4.1v-.5c0-.66,.04-1.31,.13-1.95,.09-.63,.25-1.33,.5-2.08,.24-.75,.65-1.36,1.23-1.82,.58-.46,1.27-.69,2.09-.69,1.21,0,2.04,.53,2.48,1.58s.66,2.71,.66,4.95v.5c0,.94-.17,2.34-.51,4.2-.34,1.87-.51,3.28-.51,4.23,0,2.32,.63,4.09,1.89,5.29s2.83,1.8,4.7,1.8c2.07,0,3.82-.63,5.26-1.9,1.44-1.27,1.97-2.62,1.6-4.04-.1-.41-.27-.76-.51-1.05s-.5-.58-.76-.86c-.26-.28-.53-.67-.79-1.17s-.48-1.29-.64-2.39c-.17-1.09-.25-2.46-.25-4.1v-.91c0-.33,.04-.85,.13-1.57,.09-.71,.18-1.44,.28-2.17s.17-1.56,.22-2.48c.05-.92,.05-1.78,0-2.58-.05-.8-.2-1.6-.44-2.39s-.58-1.47-1.01-2.04c-.43-.57-1.04-1.03-1.83-1.38s-1.72-.53-2.8-.53c-2.5,0-5,.85-7.51,2.53-2.51,1.69-4.47,3.94-5.87,6.75Zm4.34,13.92l-.44-.53c.12,.18,.26,.35,.44,.53Zm4.42-9.46c-.61,.23-1.1,.83-1.49,1.79-.41,1.15-.62,2.6-.62,4.34,0,3.18,.34,5.38,1.03,6.59l.44,.53c-.25-.86-.38-1.7-.38-2.52,0-1,.17-2.49,.51-4.47,.34-1.98,.51-3.47,.51-4.47v-1.79Zm1.55-.29c.98,.1,1.62,.73,1.93,1.9l-1.93-1.9Zm10.58,9.76l-.41-.53c.04,.06,.11,.15,.21,.26s.17,.21,.21,.26Z"/>
      <path class="cls-1" d="M274.04,16.03l3.84,3.84c1.48,1.43,2.23,3.22,2.23,5.39,0,1.54-.42,2.87-1.27,3.98s-2.03,1.87-3.53,2.26l2.7,2.72c1.52,1.52,2.29,3.42,2.29,5.68,0,1.54-.33,2.92-.98,4.13s-1.54,2.18-2.65,2.92-2.34,1.28-3.69,1.66c-1.35,.37-2.76,.56-4.25,.56-1.91,0-3.73-.33-5.45-.98-1.72-.65-3.18-1.59-4.39-2.8l-3.78-3.78c-2.17-2.17-3.25-4.85-3.25-8.06,0-1.45,.33-2.7,.98-3.75s1.65-1.58,2.97-1.58c-2.15-1.72-3.22-3.9-3.22-6.53,0-1.56,.35-2.95,1.04-4.16,.69-1.21,1.62-2.16,2.78-2.86,1.16-.69,2.43-1.21,3.79-1.55,1.37-.34,2.8-.51,4.31-.51,1.74,0,3.48,.29,5.23,.86,1.75,.58,3.19,1.43,4.32,2.56Zm1.79,20.1c0-1.37-.28-2.57-.83-3.62-.56-1.04-1.28-1.88-2.18-2.5-.9-.62-1.89-1.17-2.97-1.64s-2.17-.85-3.25-1.16c-1.08-.3-2.08-.59-2.97-.86-.9-.27-1.63-.6-2.18-1-.56-.39-.83-.84-.83-1.35,0-.68,.39-1.18,1.17-1.49,.78-.31,1.67-.47,2.67-.47s1.56,.16,1.8,.47c.24,.31,.14,.71-.31,1.2-.53,.7-.67,1.32-.42,1.85s.74,.95,1.49,1.27,1.62,.48,2.59,.48c1.04,0,2.06-.21,3.08-.64,.76-.37,1.38-.86,1.86-1.48s.79-1.27,.94-1.98,.21-1.37,.21-1.99c0-.62-.09-1.21-.25-1.76-.51-1.76-1.73-3.24-3.68-4.44s-4.36-1.8-7.25-1.8c-1.35,0-2.66,.15-3.94,.45-1.28,.3-2.49,.77-3.62,1.39-1.13,.63-2.05,1.51-2.74,2.65s-1.04,2.47-1.04,3.97c0,1.13,.21,2.16,.62,3.08,.41,.92,.94,1.67,1.58,2.27,.64,.6,1.36,1.13,2.14,1.6s1.57,.86,2.36,1.19,1.51,.63,2.15,.92,1.17,.61,1.58,.94c.41,.33,.62,.69,.62,1.08,0,.06,0,.13-.01,.21,0,.08-.05,.19-.13,.32-.08,.14-.18,.25-.29,.35-.12,.1-.3,.19-.56,.26-.25,.08-.56,.12-.91,.12-.96,0-1.84-.27-2.64-.82-.8-.55-1.33-1.33-1.58-2.34-.23-.82-.62-1.4-1.14-1.74-.53-.34-1.14-.41-1.85-.19-1.76,.49-2.64,2.03-2.64,4.63,0,1.41,.27,2.77,.81,4.09s1.3,2.52,2.3,3.59c1,1.07,2.3,1.93,3.93,2.58s3.42,.97,5.39,.97,3.79-.31,5.41-.92,2.94-1.59,3.98-2.92c1.04-1.33,1.57-2.93,1.57-4.8Zm-17.64-6.42l3.72,3.72h.06l-3.66-3.72h-.12Zm3.96,1.79l1.14,.73c-.27-.27-.65-.52-1.14-.73Zm3.31-8.76l.23,.26h.06v-.12c-.1-.1-.2-.15-.29-.15Z"/>
      <path class="cls-1" d="M289.6,14.53l2.29,2.29c.1-.96,.48-1.82,1.14-2.58,1.13-1.09,3-1.64,5.6-1.64s4.69,.64,5.98,1.93l2.29,2.29c.08-.78,.35-1.46,.81-2.04,.46-.58,1.04-1.02,1.73-1.32,.69-.3,1.4-.52,2.11-.66,.71-.14,1.45-.21,2.21-.21,.57,0,1.37,.17,2.4,.5,1.07,.43,1.93,.97,2.58,1.61l3.84,3.84c1.37,1.43,2.15,3.41,2.34,5.95v.91c0,2.05-.29,4.48-.88,7.28-.59,2.8-1.28,5.27-2.08,7.4-.49,1.33-1.01,2.48-1.55,3.46-.55,.98-1.22,1.92-2.02,2.83s-1.75,1.6-2.86,2.08c-1.1,.48-2.34,.72-3.71,.72-2.36,0-4.24-.66-5.62-1.99l-3.08-3.13c-.74,1.78-1.76,3.08-3.05,3.9s-2.93,1.23-4.92,1.23c-2.91,0-5.2-.8-6.86-2.4l-3.78-3.84c-1.54-1.54-2.31-3.69-2.31-6.45,0-.57,.05-1.44,.15-2.61s.15-2.06,.15-2.67c0-1-.11-1.86-.32-2.61-.21-.74-.59-1.55-1.11-2.43-.21-.37-.55-.89-1.01-1.55-.46-.66-.73-1.06-.81-1.2-1.6-2.38-2.4-4.46-2.4-6.24,0-.9,.2-1.67,.6-2.3,.4-.63,.95-1.11,1.66-1.42,.7-.31,1.42-.53,2.15-.66,.73-.13,1.53-.19,2.39-.19,2.64,0,4.63,.64,5.98,1.93Zm10.17,21.3c.08-.51,.15-.89,.22-1.16s.13-.42,.19-.48,.14-.09,.23-.09,.17,.03,.22,.09,.09,.22,.12,.47c.03,.25,.03,.63,.01,1.11-.08,1.43,.01,2.68,.28,3.76s.62,1.95,1.08,2.59,1.03,1.17,1.71,1.58,1.36,.69,2.02,.83,1.37,.22,2.11,.22c2.03,0,3.84-.66,5.43-1.98s2.98-3.58,4.17-6.78c.78-2.23,1.48-4.82,2.09-7.78s.87-5.46,.78-7.51c-.06-1.02-.22-1.94-.5-2.77-.27-.83-.61-1.5-1.01-2.01-.4-.51-.83-.95-1.3-1.32-.47-.37-.93-.64-1.39-.82s-.87-.31-1.25-.41c-.37-.1-.67-.15-.91-.15l-.35-.03c-1.33,0-2.45,.16-3.37,.48s-1.58,.74-1.99,1.26c-.41,.52-.7,1.09-.86,1.73-.17,.63-.18,1.28-.04,1.93,.14,.65,.33,1.26,.59,1.82s.55,1.03,.88,1.42c.35,.41,.69,.99,1.03,1.73,.33,.74,.62,1.61,.88,2.61s.33,2.1,.23,3.31c-.1,1.21-.41,2.34-.94,3.4-.25,.51-.52,.92-.81,1.25s-.51,.53-.67,.63c-.17,.1-.3,.15-.4,.15s-.25-.06-.45-.18-.45-.35-.73-.7-.48-.78-.6-1.29c-.27-1-.44-3.42-.5-7.27-.06-3.85-.12-6.02-.18-6.53-.18-2.03-.87-3.5-2.09-4.39-1.22-.9-2.92-1.35-5.08-1.35-1.82,0-3.28,.31-4.39,.92s-1.71,1.57-1.79,2.86c-.12,.84-.02,1.71,.29,2.62s.71,1.66,1.2,2.24c.33,.41,.65,.95,.97,1.61,.31,.66,.59,1.45,.83,2.34,.24,.9,.33,1.89,.25,2.99-.08,1.09-.34,2.14-.79,3.13-.23,.51-.49,.94-.78,1.3-.28,.36-.53,.63-.75,.79-.21,.17-.44,.29-.69,.38s-.41,.14-.48,.15c-.08,.01-.16,.01-.23,.01-.23,0-.42-.26-.56-.79-.29-1.05-.49-2.59-.6-4.6-.11-2.01-.17-4.08-.19-6.2-.02-2.12-.06-3.46-.12-4.03-.18-2.03-.87-3.5-2.09-4.39-1.22-.9-2.92-1.35-5.08-1.35s-3.96,.46-5.1,1.38c-1.13,.92-1.42,2.37-.85,4.37,.35,1.19,1.24,2.88,2.65,5.05,1.42,2.18,2.25,3.75,2.5,4.73,.25,1,.33,2.22,.22,3.68-.11,1.46-.21,2.69-.29,3.69-.09,1.01,.09,2.27,.54,3.79,.61,1.72,1.64,2.96,3.09,3.72s3.11,1.14,4.97,1.14c1.05,0,2.01-.13,2.86-.38,.85-.25,1.67-.69,2.45-1.32,.78-.62,1.44-1.55,1.98-2.77,.54-1.22,.91-2.71,1.13-4.47Zm-7.38-1.88h.12l-.12-.12-.44-1.9-.18-1.82c.02,.2,.05,.5,.09,.91s.07,.71,.09,.91c.04,.29,.15,.85,.32,1.67l.12,.23v.12Zm2.99-6.3v0Zm12.25,6.06l-.62-1.14c.31,.63,.52,1.01,.62,1.14Zm.53,.56l-.18-.18c-.14-.14-.21-.22-.23-.26,.1,.22,.23,.36,.41,.44Zm2.23-7.09v2.93c.08-.62,.12-1.1,.12-1.44,0-.37-.04-.87-.12-1.49Z"/>
      <path class="cls-1" d="M343.59,15.73l3.78,3.78c1.48,1.54,2.23,3.34,2.23,5.39,0,2.25-.7,4.33-2.11,6.24l1.08,1.08c.84,.37,1.47,1.05,1.89,2.05s.63,2.03,.63,3.11c0,3.52-1.25,6.36-3.76,8.53s-5.55,3.25-9.13,3.25c-3.77,0-6.83-1.14-9.17-3.43l-3.84-3.84c-2.81-2.87-4.22-6.95-4.22-12.25,0-2.23,.3-4.34,.89-6.34,.6-2,1.46-3.81,2.58-5.42s2.61-2.9,4.45-3.85c1.85-.96,3.92-1.44,6.23-1.44,1.56,0,3.11,.26,4.63,.79s2.8,1.31,3.84,2.34Zm-14.15,14.09c-.23-.39-.29-.67-.18-.85,.1-.16,.31-.07,.64,.26,1.23,1.39,2.97,2.08,5.21,2.08,1.43,0,2.78-.31,4.06-.94,1.28-.62,2.34-1.44,3.19-2.43s1.52-2.1,2.02-3.31c.5-1.21,.75-2.4,.75-3.57,0-2.4-.99-4.31-2.96-5.73-1.97-1.42-4.33-2.12-7.06-2.12-1.86,0-3.59,.36-5.21,1.08-1.62,.72-3.05,1.76-4.29,3.11s-2.22,3.08-2.94,5.19-1.08,4.46-1.08,7.06c0,4.65,1.11,8.33,3.34,11.04,2.23,2.71,5.37,4.07,9.43,4.07,1.58,0,3.05-.21,4.41-.64,1.36-.43,2.51-1.01,3.47-1.73,.96-.72,1.77-1.56,2.45-2.52,.67-.96,1.17-1.97,1.49-3.05,.32-1.07,.48-2.17,.48-3.28,0-1.31-.22-2.35-.66-3.12-.44-.77-.96-1.25-1.57-1.45-.57-.23-1.11-.21-1.63,.07-.52,.28-.89,.75-1.13,1.39-.31,.92-1.02,1.64-2.11,2.15-1.09,.52-2.28,.78-3.54,.78-1.43,0-2.73-.34-3.91-1.01s-2.08-1.52-2.68-2.53Zm4.92-3.49c-.8,0-1.42-.18-1.86-.54-.44-.36-.66-.85-.66-1.48,0-.68,.24-1.23,.72-1.66,.48-.42,1.08-.63,1.8-.63,.82,0,1.44,.23,1.85,.7s.62,1.02,.62,1.64c0,.59-.21,1.06-.62,1.42-.41,.36-1.03,.54-1.85,.54Zm3.96,.12c.55,.02,.97,.19,1.27,.51s.45,.74,.45,1.25l-1.73-1.76Z"/>
      <path class="cls-1" d="M373.89,14.3l3.78,3.84c1.45,1.45,2.17,3.4,2.17,5.86,0,2.09-.65,3.91-1.95,5.45-1.3,1.54-2.97,2.31-5.02,2.31-1.56,0-2.8-.46-3.72-1.38l-3.11-3.08c-1.02,1.02-1.52,2.94-1.52,5.77,0,3.15,.34,5.32,1.03,6.53l.44,.59,.53,.62c.53,.61,.85,1.16,.97,1.67l.12,.91c0,1.17-.41,2.21-1.23,3.12s-1.8,1.58-2.93,2.01c-1.13,.43-2.27,.64-3.4,.64-2.07,0-3.75-.64-5.04-1.93l-3.84-3.78c-1.41-1.41-2.11-3.33-2.11-5.77,0-1,.17-2.49,.51-4.47,.34-1.98,.51-3.47,.51-4.47,0-1.5-.16-3.02-.47-4.54-.18-.64-.48-1.48-.91-2.52-.1-.25-.28-.62-.54-1.11-.26-.49-.42-.8-.48-.94-.45-.94-.67-1.76-.67-2.46,0-1.13,.4-2.07,1.2-2.81,.57-.59,1.28-1.03,2.15-1.32s1.73-.44,2.59-.44c2.11,0,3.75,.59,4.92,1.76l2.81,2.81c1.5-1.5,2.91-2.64,4.22-3.41,1.31-.77,2.82-1.16,4.54-1.16s3.26,.57,4.45,1.7Zm-4.57,13.01c1.8-.08,3.26-.8,4.38-2.15,1.12-1.36,1.68-3,1.68-4.94,0-.53-.04-1.07-.13-1.63s-.26-1.17-.53-1.83c-.26-.66-.61-1.25-1.03-1.76-.42-.51-1-.93-1.74-1.27-.74-.34-1.58-.51-2.52-.51-2.15,0-4.26,.83-6.33,2.48-2.07,1.65-3.82,3.92-5.24,6.81-.41,.84-.73,1.26-.97,1.26-.39,0-.35-.42,.12-1.26,.57-.9,.99-1.93,1.26-3.09,.27-1.16,.32-2.13,.15-2.92-.2-.98-.81-1.77-1.85-2.37-1.04-.6-2.25-.91-3.63-.91-1.6,0-2.89,.38-3.87,1.13-.98,.75-1.46,1.69-1.46,2.83,0,.68,.35,1.7,1.05,3.05s1.19,2.63,1.46,3.84c.35,1.43,.53,2.99,.53,4.69v.5c0,.94-.17,2.34-.5,4.2-.33,1.87-.5,3.28-.5,4.23,0,2.32,.62,4.09,1.86,5.29s2.8,1.8,4.67,1.8c2.09,0,3.85-.63,5.27-1.9,1.43-1.27,1.96-2.62,1.61-4.04-.1-.41-.27-.76-.53-1.05s-.51-.58-.76-.86c-.25-.28-.51-.67-.76-1.17s-.46-1.29-.63-2.39c-.17-1.09-.25-2.46-.25-4.1v-.5c0-1.97,.33-3.55,.98-4.75,.65-1.19,1.53-1.79,2.62-1.79,1.04,0,1.47,.5,1.32,1.49-.21,1.04,.09,1.91,.92,2.62,.83,.71,1.94,1.04,3.33,.98Zm-7.18,9.05l-.44-.53c.12,.18,.26,.35,.44,.53Zm5.62-9.7c.37,.06,.56,.23,.56,.53l-.56-.53Z"/>
      <path class="cls-1" d="M397.09,16.03l3.84,3.84c1.48,1.43,2.23,3.22,2.23,5.39,0,1.54-.42,2.87-1.27,3.98s-2.03,1.87-3.53,2.26l2.7,2.72c1.52,1.52,2.29,3.42,2.29,5.68,0,1.54-.33,2.92-.98,4.13s-1.54,2.18-2.65,2.92-2.34,1.28-3.69,1.66c-1.35,.37-2.76,.56-4.25,.56-1.91,0-3.73-.33-5.45-.98-1.72-.65-3.18-1.59-4.39-2.8l-3.78-3.78c-2.17-2.17-3.25-4.85-3.25-8.06,0-1.45,.33-2.7,.98-3.75s1.65-1.58,2.97-1.58c-2.15-1.72-3.22-3.9-3.22-6.53,0-1.56,.35-2.95,1.04-4.16,.69-1.21,1.62-2.16,2.78-2.86,1.16-.69,2.43-1.21,3.79-1.55,1.37-.34,2.8-.51,4.31-.51,1.74,0,3.48,.29,5.23,.86,1.75,.58,3.19,1.43,4.32,2.56Zm1.79,20.1c0-1.37-.28-2.57-.83-3.62-.56-1.04-1.28-1.88-2.18-2.5-.9-.62-1.89-1.17-2.97-1.64s-2.17-.85-3.25-1.16c-1.08-.3-2.08-.59-2.97-.86-.9-.27-1.63-.6-2.18-1-.56-.39-.83-.84-.83-1.35,0-.68,.39-1.18,1.17-1.49,.78-.31,1.67-.47,2.67-.47s1.56,.16,1.8,.47c.24,.31,.14,.71-.31,1.2-.53,.7-.67,1.32-.42,1.85s.74,.95,1.49,1.27,1.62,.48,2.59,.48c1.04,0,2.06-.21,3.08-.64,.76-.37,1.38-.86,1.86-1.48s.79-1.27,.94-1.98,.21-1.37,.21-1.99c0-.62-.09-1.21-.25-1.76-.51-1.76-1.73-3.24-3.68-4.44s-4.36-1.8-7.25-1.8c-1.35,0-2.66,.15-3.94,.45-1.28,.3-2.49,.77-3.62,1.39-1.13,.63-2.05,1.51-2.74,2.65s-1.04,2.47-1.04,3.97c0,1.13,.21,2.16,.62,3.08,.41,.92,.94,1.67,1.58,2.27,.64,.6,1.36,1.13,2.14,1.6s1.57,.86,2.36,1.19,1.51,.63,2.15,.92,1.17,.61,1.58,.94c.41,.33,.62,.69,.62,1.08,0,.06,0,.13-.01,.21,0,.08-.05,.19-.13,.32-.08,.14-.18,.25-.29,.35-.12,.1-.3,.19-.56,.26-.25,.08-.56,.12-.91,.12-.96,0-1.84-.27-2.64-.82-.8-.55-1.33-1.33-1.58-2.34-.23-.82-.62-1.4-1.14-1.74-.53-.34-1.14-.41-1.85-.19-1.76,.49-2.64,2.03-2.64,4.63,0,1.41,.27,2.77,.81,4.09s1.3,2.52,2.3,3.59c1,1.07,2.3,1.93,3.93,2.58s3.42,.97,5.39,.97,3.79-.31,5.41-.92,2.94-1.59,3.98-2.92c1.04-1.33,1.57-2.93,1.57-4.8Zm-17.64-6.42l3.72,3.72h.06l-3.66-3.72h-.12Zm3.96,1.79l1.14,.73c-.27-.27-.65-.52-1.14-.73Zm3.31-8.76l.23,.26h.06v-.12c-.1-.1-.2-.15-.29-.15Z"/>
    </g>
  </g>
</svg>